<svg xmlns="http://www.w3.org/2000/svg" id="Layer_1" viewBox="0 0 150 150" width="150" height="150"><style>.st0{fill:none}.st1{fill:#333}.st2{fill:#fff}</style><path d="M0 84.4v4.4c.5.2.9.4 1.4.6-.3-1.6-.6-3.2-.8-4.8-.2 0-.4-.1-.6-.2z" class="st0"/><path d="M.6 84.7c.2 1.6.5 3.2.8 4.8.7.3 1.3.6 2 .9 1.8.8 3.6 1.6 5.2 2.5-.5-1.7-.9-3.5-1.2-5.2-.8-.4-1.5-.7-2.3-1.1-1.5-.7-3-1.3-4.5-1.9z"/><path d="M142.8 42.9c1.3-1.5 2.8-3.1 4.4-4.7l1.4-1.4-32.5-33.6-1.5 1.5c-1.5 1.5-2.9 2.9-4.3 4.1C99.7 3.2 87.7 0 75 0 33.6 0 0 33.6 0 75c0 2.1.1 4.2.3 6.3l.8.3c1.8.7 3.6 1.4 5.3 2.2.2.1.3.2.5.2-.4-3-.6-6-.6-9.1 0-9.3 1.8-18.3 5.4-26.8 3.5-8.2 8.4-15.5 14.7-21.9 6.3-6.3 13.7-11.3 21.9-14.7C56.7 8.1 65.7 6.2 75 6.2s18.3 1.8 26.8 5.4c1.1.5 2.3 1 3.4 1.5-7.7 6.1-13.4 8.4-17.1 9.2-5 1.1-7.4-.4-7.7-.6l-2.5-2.2-14.1 57.3 4.9 5.6 25.6-26 1.3 1.3-25.1 26.2 4.5 5.6 54-13.8 3.3-.8-2.2-2.5c-.2-.3-1.7-2.6-.6-7.7.8-3.6 3-9.1 8.8-16.6 3.6 8.5 5.4 17.5 5.4 26.8s-1.8 18.3-5.4 26.8c-3.5 8.2-8.4 15.5-14.7 21.9-6.3 6.3-13.7 11.3-21.9 14.7-8.5 3.6-17.5 5.4-26.8 5.4s-18.3-1.8-26.8-5.4c-8.2-3.5-15.5-8.4-21.9-14.7-6.3-6.3-11.3-13.7-14.7-21.9-.7-1.6-1.3-3.2-1.8-4.8-2.4-1.3-4.9-2.6-7.6-3.9 8.2 32.8 37.7 57 72.9 57 41.4 0 75-33.6 75-75 0-11.5-2.6-22.4-7.2-32.1zm-17.5 21.8c-.6 3.4-.3 6 .3 7.7l-49 12.5-.6-.7 25.5-26.5-7.1-7-25.5 25.6-.6-.7 12.1-49.3c1.7.5 4.2.9 7.7.2 8-1.4 17.4-7.3 27.9-17.5l26.9 27.7c-10.2 10.6-16.1 20-17.6 28z" class="st1"/><path d="M116 9.1c-10.5 10.2-19.9 16.1-27.9 17.5-3.4.6-6 .3-7.7-.2L68.3 75.7l.6.7 25.4-25.7 7.1 7L76 84.2l.6.7 49-12.5c-.5-1.7-.9-4.3-.3-7.7 1.4-8 7.3-17.4 17.6-27.9L116 9.1zM17.5 91.4c6.8 3.9 12.2 6.9 19.2 6.9h1c8.8-.4 17.5-5.2 26.1-14.4l1-1.1 5.2 4.8-1 1.1c-9.9 10.7-20.3 16.3-31 16.7h-1.3c-1.6 0-3.3-.1-4.9-.4-6.5-1.1-12-4.2-17.8-7.5-1.6-.9-3.1-1.8-4.8-2.7.2.7.4 1.4.7 2.1 1.2.6 2.3 1.3 3.4 1.9 5.9 3.4 11.5 6.5 18.3 7.6 1.7.3 3.4.4 5.1.4h1.4c11.1-.5 21.9-6.2 32-17.2l2-2.2-2.2-2-3-2.8-2.2-2-2 2.2c-8.3 8.9-16.7 13.6-25 14h-1c-6.6 0-11.6-2.8-18.5-6.7-3.3-1.9-7-4-11.4-6l.3 1.8c3.9 1.8 7.3 3.7 10.4 5.5z" class="st2"/><path d="M31.5 106.5c1.7.3 3.4.4 5.1.4H38c11.1-.5 21.9-6.2 32-17.2l2-2.2-2.2-2-3-2.8-2.2-2-2 2.2c-8.3 8.9-16.7 13.6-25 14h-1c-6.6 0-11.6-2.8-18.5-6.7-3.3-1.9-7-4-11.4-6L7 86c3.9 1.9 7.3 3.8 10.4 5.5 6.8 3.9 12.2 6.9 19.2 6.9h1c8.8-.4 17.5-5.2 26.1-14.4l1-1.1 5.2 4.8-1 1.1c-9.9 10.7-20.3 16.3-31 16.7h-1.3c-1.6 0-3.3-.1-4.9-.4-6.5-1.1-12-4.2-17.8-7.5-1.6-.9-3.1-1.8-4.8-2.7.2.7.4 1.4.7 2.1 1.2.6 2.3 1.3 3.4 1.9 5.9 3.3 11.5 6.5 18.3 7.6z" class="st0"/><path d="M31.5 106.5c1.7.3 3.4.4 5.1.4H38c11.1-.5 21.9-6.2 32-17.2l2-2.2-2.2-2-3-2.8-2.2-2-2 2.2c-8.3 8.9-16.7 13.6-25 14h-1c-6.6 0-11.6-2.8-18.5-6.7-3.3-1.9-7-4-11.4-6L7 86c3.9 1.9 7.3 3.8 10.4 5.5 6.8 3.9 12.2 6.9 19.2 6.9h1c8.8-.4 17.5-5.2 26.1-14.4l1-1.1 5.2 4.8-1 1.1c-9.9 10.7-20.3 16.3-31 16.7h-1.3c-1.6 0-3.3-.1-4.9-.4-6.5-1.1-12-4.2-17.8-7.5-1.6-.9-3.1-1.8-4.8-2.7.2.7.4 1.4.7 2.1 1.2.6 2.3 1.3 3.4 1.9 5.9 3.3 11.5 6.5 18.3 7.6z" class="st0"/><path d="M31.5 106.5c1.7.3 3.4.4 5.1.4H38c11.1-.5 21.9-6.2 32-17.2l2-2.2-2.2-2-3-2.8-2.2-2-2 2.2c-8.3 8.9-16.7 13.6-25 14h-1c-6.6 0-11.6-2.8-18.5-6.7-3.3-1.9-7-4-11.4-6L7 86c3.9 1.9 7.3 3.8 10.4 5.5 6.8 3.9 12.2 6.9 19.2 6.9h1c8.8-.4 17.5-5.2 26.1-14.4l1-1.1 5.2 4.8-1 1.1c-9.9 10.7-20.3 16.3-31 16.7h-1.3c-1.6 0-3.3-.1-4.9-.4-6.5-1.1-12-4.2-17.8-7.5-1.6-.9-3.1-1.8-4.8-2.7.2.7.4 1.4.7 2.1 1.2.6 2.3 1.3 3.4 1.9 5.9 3.3 11.5 6.5 18.3 7.6z" class="st0"/><path d="M14 97.6c5.8 3.3 11.3 6.4 17.8 7.5 1.6.3 3.2.4 4.9.4H38c10.7-.4 21.1-6.1 31-16.7l1-1.1-5.2-4.8-1 1.1c-8.6 9-17.4 13.9-26.1 14.3h-1c-7 0-12.4-3.1-19.2-6.9-3-1.7-6.5-3.7-10.4-5.5l-.3-1.8c-.2-.1-.3-.2-.5-.2-1.7-.8-3.5-1.5-5.3-2.2l-.8-.3c0 .6.1 1.1.2 1.7s.1 1.1.2 1.7c1.5.6 3 1.2 4.5 1.9.8.4 1.6.7 2.3 1.1 3.5 1.7 6.6 3.4 9.3 5 7 4 12.5 7.1 19.9 7.1h1.1c9.2-.4 18.3-5.4 27.1-14.9l3 2.8c-9.6 10.4-19.7 15.8-30 16.2h-1.3c-1.6 0-3.2-.1-4.6-.4-6.3-1-11.5-4-17.3-7.3-2-1.1-4-2.2-6.1-3.4-1.5-.9-3.3-1.7-5.1-2.6-.7-.3-1.3-.6-2-.9.1.6.2 1.2.4 1.8.1.6.3 1.2.4 1.8 2.8 1.3 5.3 2.6 7.6 4-.2-.7-.4-1.4-.7-2.1 1.7.9 3.3 1.8 4.9 2.7z" class="st2"/><path d="M138.3 48.2c-5.8 7.4-8.1 12.9-8.8 16.6-1.1 5 .4 7.4.6 7.7l2.2 2.5-3.3.8-54 13.8-4.5-5.6 25.2-26.2-1.3-1.3-25.6 26-4.9-5.6L78 19.7l2.5 2.2c.3.2 2.6 1.7 7.7.6 3.7-.8 9.4-3.1 17.1-9.2-1.1-.5-2.2-1-3.4-1.5C93.3 8.1 84.3 6.2 75 6.2S56.7 8 48.2 11.6C40 15.1 32.7 20 26.3 26.3 20 32.6 15 40 11.6 48.2 8.1 56.7 6.2 65.7 6.2 75c0 3.1.2 6.1.6 9.1 4.3 2 8.1 4.1 11.4 6 6.9 3.9 11.9 6.7 18.5 6.7h1c8.3-.3 16.8-5 25-14l2-2.2 2.2 2 3 2.8 2.2 2-2 2.2c-10.1 11-20.9 16.7-32 17.2h-1.4c-1.7 0-3.4-.1-5.1-.4-6.8-1.1-12.4-4.3-18.3-7.6-1.1-.6-2.2-1.3-3.4-1.9.5 1.6 1.2 3.2 1.8 4.8 3.5 8.2 8.4 15.5 14.7 21.9 6.3 6.3 13.7 11.3 21.9 14.7 8.5 3.6 17.5 5.4 26.8 5.4s18.3-1.8 26.8-5.4c8.2-3.5 15.5-8.4 21.9-14.7 6.3-6.3 11.3-13.7 14.7-21.9 3.6-8.5 5.4-17.5 5.4-26.8s-2-18.2-5.6-26.7z" class="st2"/><path d="M37.8 99.8h-1.1c-7.4 0-13-3.2-19.9-7.1-3.4-1.9-7.2-4.1-11.6-6.1-1.7-.8-3.4-1.5-5.1-2.1v4.4c1.1.5 2.3.9 3.4 1.4 4.3 1.9 7.9 4 11.3 5.9 5.8 3.3 11.1 6.3 17.3 7.3 1.5.2 3 .4 4.6.4H38c10.3-.4 20.4-5.9 30-16.2l-3-2.8c-9 9.5-18.1 14.5-27.2 14.9z" class="st1"/></svg>