<?xml version="1.0" encoding="utf-8"?>
<!-- Generator: Adobe Illustrator 25.0.0, SVG Export Plug-In . SVG Version: 6.00 Build 0)  -->
<svg version="1.1" id="Layer_1" xmlns="http://www.w3.org/2000/svg" xmlns:xlink="http://www.w3.org/1999/xlink" x="0px" y="0px"
	 viewBox="0 0 150 150" style="enable-background:new 0 0 150 150;" xml:space="preserve">
<style type="text/css">
	.st0{fill:#333333;}
</style>
<g>
	<path class="st0" d="M75,0C33.6,0,0,33.6,0,75s33.6,75,75,75s75-33.6,75-75S116.4,0,75,0z M75,144c-38,0-69-31-69-69S37,6,75,6
		s69,31,69,69S113,144,75,144z"/>
	<path class="st0" d="M122.5,73c-0.4-2.9-0.5-5.8-1.2-8.6c-2.7-11.5-8.9-20.8-18.5-27.8c-0.9-0.7-1.7-0.6-2.2,0.1s-0.3,1.5,0.6,2.1
		c9.7,7.1,15.7,16.5,17.9,28.3c0.6,2.9,0.6,5.8,0.8,8.7c0,1.1,0.7,1.9,1.5,1.6c0.5-0.2,0.9-0.8,1.3-1.2c0-0.7,0-1.4-0.1-2.2
		C122.6,73.7,122.5,73.3,122.5,73z"/>
	<path class="st0" d="M99.6,97.4c0.4-4,0.8-7.9,1.2-11.9c-0.2-5.3-0.6-10.6-1.9-15.7c-3-12.4-14.8-20.4-27.5-18.6
		c-12.1,1.7-21.5,13.4-20.5,25.6c0.1,1.5,0.5,3,0.6,4.5c0.2,2.1,0.2,4.1,0.3,6.1c0,0.3-0.1,0.7-0.1,1c0,0.9,0.5,1.5,1.3,1.5
		s1.4-0.4,1.4-1.2c0-2.6,0.1-5.2-0.2-7.8c-0.4-3.1-0.9-6.2-0.4-9.4c1.6-9.5,9.3-16.7,19.3-17.8c9.5-1.1,18.7,4.4,22.1,13.4
		c1.8,4.5,2.2,9.4,2.5,14.2c0.3,5.2,0,10.5-0.8,15.7c-0.1,1,0.3,1.7,1.1,1.8C98.8,99,99.5,98.4,99.6,97.4z"/>
	<path class="st0" d="M105.2,61c1.8,3.7,2.6,7.7,3.2,11.7c0.2,1,0.8,1.5,1.6,1.4c0.8,0,1.2-0.7,1.1-1.7c-0.7-6.2-2.5-12-6.1-17.1
		c-8.7-12.1-20.5-17.6-35.3-15.5C57.1,41.7,48.1,49,42.6,60.4c-1.3,2.8-2.2,5.7-2.7,8.6c-0.1,0.9,0.3,1.5,1.1,1.7
		c0.9,0.1,1.4-0.3,1.6-1.1c0.2-0.8,0.3-1.6,0.5-2.4c4.2-16.6,19.5-27.1,36.6-24.8C91.5,43.9,100,50.4,105.2,61z"/>
	<path class="st0" d="M83.1,79.5c-0.3-2.2-0.5-4.4-1.1-6.5c-1-3.5-5-5.6-8.2-4.7c-3.5,0.9-5.9,4.7-5.3,8.3c0.3,2,0.6,4,0.8,6
		c0.4,4.1,0,8.1-0.8,12.1c-0.2,0.9,0.2,1.6,1,1.8c0.7,0.2,1.4-0.3,1.6-1.1c0-0.2,0.1-0.3,0.1-0.5c1.4-6.5,1.2-13,0-19.4
		c-0.4-2.2,1-4.1,3.3-4.6s4.6,0.6,5,2.7c0.6,3.3,1.2,6.7,1.3,10c0.5,12.7-3.1,24.2-10.5,34.6c-0.5,0.6-1,1.2-1.4,1.8
		c-0.5,0.6-0.4,1.4,0.2,1.9c0.6,0.5,1.3,0.4,1.9-0.3c0.1-0.2,0.2-0.3,0.3-0.5c7.9-10.6,11.9-22.5,12.1-36.3
		C83.3,83.4,83.3,81.5,83.1,79.5z"/>
	<path class="st0" d="M37.2,83.2c-0.4-2.8-0.7-5.5-1.1-8.2c0.1,0,0.1-0.1,0.2,0c0-1.3,0.1-2.5,0.2-3.8c0-0.6,0.1-1.3,0.2-1.9
		c1.6-10.1,6.4-18.5,14.6-24.8c7.8-6,16.7-8.6,26.6-8c0.8,0.1,1.7,0.3,2.5,0.2c0.5,0,1.1-0.5,1.3-0.9c0.2-0.3-0.1-1-0.4-1.4
		c-0.2-0.3-0.8-0.4-1.2-0.4c-3.9-0.5-7.7-0.4-11.5,0.2c-10.2,1.7-18.7,6.5-25.3,14.5c-7.2,8.7-10.5,18.8-9.6,30.2
		c0.2,1.8,0.6,3.6,0.8,5.5c0.4,2.9-0.5,5.5-2.4,7.7c-0.5,0.5-0.8,1-0.5,1.7c0.5,1.1,1.7,1.2,2.5,0.2C36.8,90.9,37.8,87.3,37.2,83.2z
		"/>
	<path class="st0" d="M88.4,35.7c-0.2-0.1-0.5-0.2-0.7-0.2c-0.7-0.1-1.2,0.2-1.4,0.9c-0.2,0.6-0.1,1.2,0.6,1.6l0.9,0.3
		c5.6,2,10.6,4.9,14.8,9.1c5.8,5.7,9.4,12.6,10.9,20.7c0.9,4.8,1.6,9.7,1.6,14.6c0,4.6-0.4,9.1-0.6,13.6c-0.1,1.1,0.3,1.7,1.2,1.8
		c0.9,0,1.4-0.5,1.5-1.6c0.3-3.7,0.5-7.3,0.7-9.5c-0.1-8.5-0.6-15.5-2.4-22.3C111.5,50.4,102.4,40.8,88.4,35.7z"/>
	<path class="st0" d="M76.7,75.2c-0.2-1-0.9-1.6-1.7-1.4c-0.9,0.2-1.2,0.8-1.1,1.9c0.4,3.3,0.8,6.5,1.2,9.8
		c-0.2,8.1-2.1,15.7-5.7,22.8c-1.8,3.6-4.1,6.9-6.7,10c-0.7,0.8-0.8,1.5-0.3,2.1c0.6,0.7,1.5,0.6,2.3-0.3
		C75.6,107,79.7,92,76.7,75.2z"/>
	<path class="st0" d="M48.4,80.4c-0.8-4.2-0.7-8.4,0.4-12.5c1.5-5.4,4.5-9.9,8.8-13.6c0.4-0.4,0.7-0.9,1.1-1.4
		c-0.4-0.5-0.6-1-0.9-1.1c-0.7-0.4-1.3-0.1-1.8,0.4C48.3,59,44.7,67.5,45.3,77.7c0.1,1.8,0.6,3.7,0.8,5.5c0.7,7.2-1.6,13.3-6.9,18.3
		c-0.4,0.4-1,0.7-1.2,1.1c-0.2,0.4-0.4,1.1-0.2,1.5c0.2,0.3,0.8,0.6,1.3,0.7c0.3,0,0.8-0.3,1.1-0.6C47.3,97.8,50.1,89.8,48.4,80.4z"
		/>
	<path class="st0" d="M60.2,84.2c0-2.6-0.7-5.2-0.9-7.8c-0.7-7.4,3.9-14.1,10.9-16.3c2-0.7,4.1-0.9,6.2-0.8c0.9,0,1.5-0.6,1.5-1.3
		c0.1-0.7-0.5-1.3-1.3-1.4c-0.5-0.1-1.1-0.1-1.4-0.1C63.6,56.9,55.1,67,56.7,78.1c0.3,1.8,0.7,3.7,0.8,5.6
		c0.5,10.6-3.3,19.4-11.1,26.5c-0.8,0.8-1,1.5-0.4,2.2c0.5,0.7,1.3,0.7,2.2-0.1C56.4,104.8,60.5,95.4,60.2,84.2z"/>
	<path class="st0" d="M37.3,49.3c0.6,0.5,1.3,0.3,1.8-0.2c0.2-0.3,0.4-0.5,0.6-0.8c12.5-16.4,34.3-22.1,53.2-14
		c0.7,0.3,1.4,0.7,2.1,0.9c0.4,0.1,1,0,1.4-0.3c0.3-0.3,0.4-1,0.3-1.3c-0.2-0.5-0.7-0.9-1.1-1.1c-6.5-3.1-13.3-4.6-20.4-4.7
		c-1.5,0.1-3.1,0.1-4.6,0.5c-13.2,1.4-23.9,7.2-32.3,17.4c-0.5,0.6-1,1.2-1.4,1.8C36.5,48.2,36.6,48.8,37.3,49.3z"/>
	<path class="st0" d="M95.2,85.4c-0.5-4.1-0.9-8.2-1.4-12.3c-0.8-6-3.8-10.7-8.9-13.9c-0.3-0.2-0.5-0.3-0.8-0.4
		c-0.7-0.2-1.2-0.1-1.6,0.5c-0.4,0.6-0.3,1.2,0.2,1.7c0.3,0.3,0.6,0.4,0.9,0.6c3.5,2.2,6,5.1,6.9,9.1c0.8,3.6,1.4,7.2,1.6,10.8
		c0.8,13.4-2.2,25.9-8.8,37.5c-0.2,0.3-0.4,0.6-0.5,1c-0.1,0.6,0.1,1.2,0.7,1.5s1.1,0.2,1.6-0.3c0.2-0.2,0.3-0.5,0.5-0.8
		c6.1-10.8,9.2-22.5,9.3-35C95,85.4,95,85.3,95.2,85.4z"/>
	<path class="st0" d="M99.8,57.8c-0.7-0.9-1.4-1.2-2.1-0.7c-0.8,0.4-0.8,1.3-0.2,2.2c2.2,3.2,3.7,6.7,4.5,10.6
		c2.5,12.2,2.1,24.2-1.2,36.2c-0.6,2.5-1.6,4.9-2.3,7.4c-0.2,0.4,0,1.2,0.3,1.5c0.2,0.3,1,0.4,1.4,0.2c0.4-0.2,0.7-0.7,0.9-1.2
		c3.5-9.2,5.2-18.8,5.2-30c0.1-3.3-0.4-8-1.2-12.6C104.4,66.4,102.7,61.9,99.8,57.8z"/>
	<path class="st0" d="M42,76.3c-0.1-0.7-0.6-1.1-1.3-1.1s-1.2,0.4-1.3,1.2c0,0.5,0,1,0.1,1.5c0.2,2,0.6,4,0.8,6
		c0.5,5.2-1.3,9.6-5.1,13.2l-0.6,0.6c-0.5,0.5-0.5,1.2,0,1.7s1.1,0.7,1.7,0.3c0.3-0.1,0.5-0.3,0.7-0.5c4-3.7,6-8.4,6.2-14.2
		C42.8,82.3,42.5,79.3,42,76.3z"/>
	<path class="st0" d="M31.9,85.7c0-0.2-0.1-0.3-0.1-0.4c-0.4-3.1-1.1-6.2-1.2-9.3c-0.3-7.3,1.4-14.2,4.7-20.8c0.6-1,0.4-1.8-0.4-2.2
		c-0.8-0.4-1.5,0-2,1c-3.3,6.7-5,13.8-5,21.2c0,3.7,0.4,7.5,1.4,11.1c0.2,0.9,0.8,1.4,1.6,1.2C31.7,87.4,32.1,86.7,31.9,85.7z"/>
	<path class="st0" d="M93.7,51.4C88.2,47.2,82,45.1,74.3,45c-1.1,0.1-3.1,0.2-5,0.6c-2.3,0.5-4.4,1.3-6.6,2.1
		c-0.7,0.3-1.1,0.9-0.8,1.7c0.3,0.8,0.9,1.1,1.7,0.9c0.3,0,0.5-0.2,0.8-0.3c5.4-2.3,11-2.9,16.8-1.6c4.2,0.9,7.9,2.8,11.2,5.4
		c0.8,0.7,1.6,0.6,2.1,0c0.6-0.6,0.4-1.4-0.4-2.1C93.9,51.6,93.8,51.5,93.7,51.4z"/>
	<path class="st0" d="M88.7,92.9c0-1-0.5-1.6-1.2-1.6c-0.8-0.1-1.4,0.4-1.5,1.4c-1.2,9.9-4.6,19-10.2,27.3c-0.2,0.3-0.3,0.5-0.4,0.7
		c-0.2,0.7-0.1,1.4,0.5,1.6c0.5,0.1,1.2,0,1.7-0.1c0.3,0,0.4-0.4,0.6-0.7c3.3-5.1,5.9-10.4,7.8-16.2C87.3,101.2,88.2,97,88.7,92.9z"
		/>
	<path class="st0" d="M52.5,96.6c0.3-0.6,0.4-1.3-0.2-1.7c-0.4-0.3-1-0.4-1.4-0.3c-0.4,0.1-0.8,0.6-1,1.1c-1.1,2.7-2.6,5.2-4.5,7.4
		c-1.1,1.2-2.3,2.2-3.4,3.4c-0.4,0.4-0.6,1.1-0.5,1.6c0.1,0.4,0.7,0.7,1.1,1.1c0.5-0.3,0.9-0.4,1.2-0.7
		C47.7,105.3,50.6,101.3,52.5,96.6z"/>
	<path class="st0" d="M110.5,78.6c-0.8,0.1-1.3,0.7-1.3,1.5v0.6c0.5,7.5-0.1,15-1.7,22.3c-0.3,1.4-0.7,2.7-1,4.1
		c-0.2,0.9,0.2,1.6,1,1.8c0.8,0.1,1.4-0.3,1.7-1.1c0.1-0.1,0.2-0.3,0.2-0.5c1.8-7.1,2.7-14.4,2.7-21.7c0-0.6,0-1.2,0.1-1.9
		c-0.1-1.3-0.1-2.5-0.2-3.8C111.9,79,111.3,78.5,110.5,78.6z"/>
	<path class="st0" d="M97.1,103.3c-0.8-0.2-1.4,0.2-1.7,1.3c-0.5,1.6-0.9,3.2-1.5,4.7c-1.1,2.7-2.2,5.3-3.3,8
		c-0.5,1.1,0.1,2.1,1.5,2.1c0.2-0.2,0.7-0.5,1-1.1c2.1-4.2,3.7-8.5,4.9-13C98.3,104.2,98,103.5,97.1,103.3z"/>
	<path class="st0" d="M69.3,64c-3.4,1.8-5.6,4.7-6.6,8.5c-0.2,0.7-0.1,1.3,0.6,1.6c0.4,0.1,1.1,0.1,1.5-0.1c0.4-0.2,0.6-0.8,0.7-1.3
		c1.5-5.7,7.5-9,13.1-7.1c3.9,1.3,5.9,4.2,6.7,8.2c0.7,3.7,1.1,7.5,1.1,11.3c0,1,0.5,1.6,1.3,1.6s1.4-0.7,1.4-1.7v-2
		c0.1,0,0.2,0,0.3,0.1c-0.6-3.6-0.8-7.4-1.7-11C85.8,64.2,76.4,60.2,69.3,64z"/>
	<path class="st0" d="M65.9,80.1c-0.1-1.1-0.6-1.7-1.5-1.6c-0.9,0.1-1.3,0.8-1.2,1.9c1.1,9.4-0.7,18.1-6,26
		c-1.7,2.6-3.9,4.8-5.9,7.1c-0.7,0.9-0.8,1.6-0.2,2.2c0.6,0.6,1.4,0.5,2.2-0.3c8.4-8.2,12.6-18.3,12.9-30.5
		C66.1,83.6,66,82,65.9,80.1z"/>
	<path class="st0" d="M68.8,101.9c-0.3-0.3-0.5-0.9-1-1.2c-0.6-0.3-1.2-0.1-1.6,0.5c-0.2,0.3-0.3,0.5-0.4,0.8
		c-1.9,4.7-4.4,8.8-7.7,12.6c-0.6,0.7-1.2,1.3-1.8,2c-0.4,0.6-0.4,1.2,0.1,1.8c0.6,0.6,1.3,0.6,1.9,0.1l0.4-0.4
		c4.2-4.4,7.4-9.4,9.7-15.1C68.5,102.7,68.6,102.4,68.8,101.9z"/>
</g>
</svg>
