<?xml version="1.0" encoding="utf-8"?>
<!-- Generator: Adobe Illustrator 25.0.0, SVG Export Plug-In . SVG Version: 6.00 Build 0)  -->
<svg version="1.1" id="Layer_1" xmlns="http://www.w3.org/2000/svg" xmlns:xlink="http://www.w3.org/1999/xlink" x="0px" y="0px"
	 viewBox="0 0 464.4 66.6" style="enable-background:new 0 0 464.4 66.6;" xml:space="preserve">
<style type="text/css">
	.st0{fill:#FFFFFF;}
</style>
<g>
	<polygon class="st0" points="441.2,34.3 453.7,52.8 456.7,52.8 456.7,13.8 453.6,13.9 453.6,46.9 441.2,28.6 	"/>
	<polygon class="st0" points="435.8,13.9 435.8,52.9 438.9,52.9 438.9,19.6 451.1,37.7 451.1,31.9 439,13.9 	"/>
	<polygon class="st0" points="193.4,34.4 205.9,53 208.9,53 208.9,14 205.8,14 205.8,47 193.4,28.7 	"/>
	<path class="st0" d="M244.8,33.5c0-11-5.1-19.4-13-19.4h-8.5l-0.2-0.2v0.2v38.6v0.2h8.7C239.7,52.9,244.8,44.5,244.8,33.5z
		 M231.7,48.4h-5.1l12.2-14.8l-12.2-15.3h5.1c6.3,0,9.7,6.8,9.7,15.1C241.4,41.7,237.8,48.4,231.7,48.4z"/>
	<rect x="214.4" y="14.1" class="st0" width="3.1" height="38.8"/>
	<path class="st0" d="M101.5,13.9H89.8v38.8v0.1L100,40.3l0.6-0.8l2.4-2.9c4-0.4,7.7-4,7.7-11C110.7,18.4,106.9,13.9,101.5,13.9z
		 M104.3,32l-11-13.7h7.8c3.5,0,5.8,3,5.8,7.4C106.9,28.5,105.9,30.8,104.3,32z"/>
	<polygon class="st0" points="59.8,52.9 81,52.9 81,49.7 63.2,49.7 63.2,37.2 80.8,37.2 80.8,34 59.8,34 	"/>
	<polygon class="st0" points="187.9,14 187.9,53 191.1,53 191.1,19.6 203.2,37.7 203.2,31.9 191.2,14 	"/>
	<rect x="116.6" y="13.9" class="st0" width="3.1" height="39"/>
	<polygon class="st0" points="81.1,17.1 81.1,13.9 59.8,13.9 59.8,30.9 80.7,30.9 80.7,27.7 63.2,27.7 63.2,17.1 	"/>
	<polygon class="st0" points="343.8,30.8 364.7,30.8 364.7,27.6 347,27.6 347,17.1 365,17.1 365,13.9 343.8,13.9 	"/>
	<rect x="418.3" y="30.6" class="st0" width="11.9" height="3.2"/>
	<polygon class="st0" points="364.8,37.2 364.8,34 343.9,34 343.9,52.9 365.1,52.9 365.1,49.7 347.1,49.7 347.1,37.2 	"/>
	<rect x="398.7" y="14.1" class="st0" width="3.1" height="38.8"/>
	<rect x="279.8" y="49.8" class="st0" width="21" height="3.1"/>
	<polygon class="st0" points="36.6,13.9 33.5,13.9 33.5,52.9 36.6,52.9 36.6,30.9 49.2,30.9 49.2,27.8 36.6,27.8 36.6,27.7 	"/>
	<path class="st0" d="M424.7,14.5c-1.3-0.8-2.8-1.2-4.5-1.2c-7.2,0-13,8-13,20.1c0,0.5,0,1,0.1,1.6c0,0.8,0.1,1.5,0.2,2.2
		c0.1,0.8,0.2,1.5,0.3,2.2c1.6,8.7,6.6,14.2,12.5,14.2c1.7,0,3.1-0.4,4.5-1.1c0.9-0.4,1.7-1,2.3-1.7c1.2-1,2.3-2.3,3.1-3.9V37h-11.9
		v3.2h8.7v4.7c-0.5,0.9-1.4,1.7-2.3,2.5c-1.2,1-2.8,1.7-4.5,1.7c-4.3,0-7.7-3.9-9.1-9.9c-0.2-0.7-0.3-1.4-0.4-2.2
		c-0.1-0.7-0.2-1.5-0.2-2.2c0-0.5-0.1-1-0.1-1.6c0-9.2,4.3-15.7,9.8-15.7c1.7,0,3.1,0.7,4.5,1.7c0.9,0.7,1.7,1.7,2.3,2.8
		c0.2,0.3,0.3,0.6,0.5,0.9l2.5-2.3c-0.9-1.7-1.8-3-3-4.3C426.3,15.6,425.5,14.9,424.7,14.5z"/>
	<polygon class="st0" points="54.4,52.8 54.4,13.8 51.2,13.8 51.2,13.9 51.2,34 39,34 39,37 51.3,37 51.3,52.8 	"/>
	<polygon class="st0" points="258.4,43.4 268.1,43.4 271,52.9 275.2,52.9 271.2,40 271.2,40 259.2,40 	"/>
	<polygon class="st0" points="101.9,43 106.4,52.9 110.7,52.9 104.5,39.9 	"/>
	<polygon class="st0" points="279.9,13.8 279.9,46.5 300.8,46.5 300.8,43.4 283,43.4 283,13.8 	"/>
	<polygon class="st0" points="130.7,34.3 143.2,52.8 146.2,52.8 146.2,13.8 143.1,13.9 143.1,46.9 130.7,28.6 	"/>
	<polygon class="st0" points="258.6,13.8 246.6,52.9 250.8,52.9 261,18.1 266.4,36.8 270.2,36.8 263.2,13.8 	"/>
	<rect y="0" class="st0" width="464.5" height="3.1"/>
	<rect y="63.5" class="st0" width="464.5" height="3.1"/>
	<path class="st0" d="M338.9,33.5c0.1-11-5.1-19.4-13-19.4h-8.7v38.8h8.7C333.8,52.9,338.9,44.5,338.9,33.5z M325.9,48.6h-5.1l0-0.1
		l12.1-14.7l-12.3-15.4l0-0.1h5.3c6.3,0,9.7,6.8,9.7,15.1S332.1,48.6,325.9,48.6z"/>
	<polygon class="st0" points="125.3,13.9 125.3,52.9 128.4,52.9 128.4,19.6 140.6,37.7 140.6,31.9 128.5,13.9 	"/>
	<path class="st0" d="M17.2,53.4c8,0,10.9-4.6,10.9-9c0-0.7-0.1-1.3-0.2-1.9c-0.8-4.9-6.5-6.4-10.9-7.5c-2.7-0.8-4.6-1.7-5.8-3.1
		L8.9,35c2.2,1.9,4.5,2.8,7.2,3.8c3,1.1,6.8,1.7,7.8,3.8c0.3,0.6,0.4,1.2,0.4,2c0,2.3-1.7,5.3-7,5.3c-4.2,0-7.4-2.1-9.3-4.3
		l-2.2,2.9C8.2,51.4,12,53.4,17.2,53.4z"/>
	<path class="st0" d="M16.9,16.7c3.3,0,6.3,1.1,8.6,3.6l2.3-2.7c-2.5-2.6-6-4.1-10.6-4.1c-5.8,0-10.3,3.3-10.3,8.2
		c0,0.7,0.1,1.3,0.3,1.9c1,4.2,5.7,5.3,9.9,6.4c3,0.9,6,1.6,7,3.6l2.4-3.2c-2.1-2.2-5.4-3.3-8.5-4.1c-2.7-0.7-5.2-1.4-6.4-2.7
		c-0.5-0.6-0.8-1.2-0.8-2.2C10.8,18.6,13.3,16.7,16.9,16.7z"/>
	<path class="st0" d="M171.8,53.2c8,0,10.9-4.6,10.9-9c0-0.7-0.1-1.3-0.2-1.9c-0.9-4.9-6.5-6.3-10.9-7.5h0c-2.7-0.8-4.6-1.7-5.8-3.1
		l-2.3,3.1c2.2,1.9,4.5,2.8,7.2,3.8c3,1.1,6.8,1.7,7.8,3.8c0.3,0.6,0.4,1.2,0.4,2c0,2.3-1.7,5.3-7,5.3c-4.2,0-7.4-2.1-9.3-4.3
		l-2.2,2.9C162.8,51.2,166.6,53.2,171.8,53.2z"/>
	<path class="st0" d="M380.9,16.4c3.3,0,6.3,1.1,8.6,3.6l2.3-2.7c-2.5-2.6-6-4.1-10.6-4.1c-5.8,0-10.3,3.3-10.3,8.2
		c0,0.7,0.1,1.3,0.3,1.9c1,4.2,5.7,5.3,9.9,6.4c3,0.9,6,1.6,7,3.6l2.4-3.2c-2.1-2.2-5.5-3.2-8.5-4.1c-2.7-0.7-5.2-1.4-6.4-2.7
		c-0.5-0.6-0.8-1.2-0.8-2.2C374.8,18.3,377.3,16.4,380.9,16.4z"/>
	<path class="st0" d="M171.5,16.5c3.3,0,6.3,1.1,8.6,3.6l2.3-2.7c-2.5-2.6-6-4.1-10.6-4.1c-5.8,0-10.3,3.3-10.3,8.2
		c0,0.7,0.1,1.3,0.3,1.9c1,4.2,5.7,5.3,9.9,6.4c3,0.9,6,1.6,7,3.6l2.4-3.2c-2.1-2.2-5.4-3.2-8.5-4.1c-2.7-0.7-5.2-1.4-6.4-2.7
		c-0.5-0.6-0.8-1.2-0.8-2.2C165.4,18.4,167.9,16.5,171.5,16.5z"/>
	<path class="st0" d="M381.2,53.1c8,0,10.9-4.6,10.9-9c0-0.7-0.1-1.3-0.2-1.9c-0.9-4.9-6.6-6.3-10.9-7.5c-2.7-0.8-4.6-1.7-5.8-3.1
		l-2.3,3.1c2.2,1.9,4.5,2.8,7.2,3.8c3,1.1,6.8,1.7,7.8,3.8c0.3,0.6,0.4,1.2,0.4,2c0,2.3-1.7,5.3-7,5.3c-4.2,0-7.4-2.1-9.3-4.3
		l-2.2,2.9C372.2,51.1,376,53.1,381.2,53.1z"/>
</g>
</svg>
